# xmcd CD database file
# Copyright (C) 1993-1998 Ti Kan
# 
# Track frame offsets:
#     150
#     19853
#     39703
#     60398
#     77023
#     92158
#     105763
#     128593
#     148513
#     164360
#     183675
#     197428
# 
# Disc length: 2936 seconds
# 
# Revision: 1
# Processed by: cddbd v1.4b41PL1 Copyright (c) Steve Scherf et al.
# Submitted via: DiscPlay 4.0.4
# 
DISCID=930b760c
DTITLE=The Lost Gonzo Band - Rendezvous
DYEAR=1900
DGENRE=
TTITLE0=Hurricane
TTITLE1=Silent Dancer
TTITLE2=Fool For A Tender Touch
TTITLE3=Prairie Madness
TTITLE4=Corona Con Lima
TTITLE5=Baby, Baby, Baby
TTITLE6=Geronimo's Cadillac
TTITLE7=Rendezvous
TTITLE8=Everywhere I Go I See YOur Face
TTITLE9=Comanche Highway
TTITLE10=Friends
TTITLE11=Terlingua Sky
EXTD=
EXTT0=
EXTT1=
EXTT2=
EXTT3=
EXTT4=
EXTT5=
EXTT6=
EXTT7=
EXTT8=
EXTT9=
EXTT10=
EXTT11=
PLAYORDER=
